<svg xmlns="http://www.w3.org/2000/svg" viewBox="0 0 176 176" fill="#fff"><g stroke-width="2"><path vector-effect="non-scaling-stroke" d="M176 1.06q-.1-.03-.21-.06M1.25 1.04 0 1.19"/></g><path fill-opacity=".294" d="M0 0h176v1.06q-.1-.03-.21-.06-.01-.15-.03-.32-.06-.43-.49-.43H.92Q.31.25.63.77q.18.29.62.27L0 1.19V0Z"/><path d="M1.25 1.04 175.79 1q.11.03.21.06V176H0V1.19l1.25-.15Zm165 8.46h-31.53a.89.88-5.8 0 0-.87 1.06q5.33 26.34 31.43 32.58a1.19 1.19 0 0 0 1.47-1.16V10q0-.5-.5-.5Zm-62.3 100.97q2.47 9.14-.16 16.81-7.73 22.56-32.14 24.34-.4.02-.4.42v14.81a.41.4 0 0 0 .41.4h94.59a.5.5 0 0 0 .5-.5V52.99q0-.59-.58-.67c-22.22-3.25-39.04-19.95-41.31-42.47a.39.38 86.6 0 0-.38-.35H9.75a.5.5 0 0 0-.5.5v156.75a.5.5 0 0 0 .5.5H61.5q.75 0 .75-.75v-14.45q0-.56-.56-.57c-22.03-.6-36.51-19.29-32.54-40.84a1.03 1.03 0 0 1 .82-.82q18.45-3.45 31.62 9.43a.39.39 0 0 0 .66-.28l-.01-9.87a.46.46 0 0 0-.4-.46C46.64 106.87 36.6 93.2 39.9 78.02q.1-.45.56-.56c13.59-3.04 26.89 5.29 29.99 18.61 1.46 6.26.76 15.5.81 22.93q.01.67.51.23c9.37-8.21 18.93-12.04 31.53-9.37q.52.11.65.61ZM48.49 86.88c1.59 6.6 6.37 11.36 13.08 12.72a.36.35 89.5 0 0 .42-.43Q59.6 88.78 49.29 86.1a.65.65 0 0 0-.8.78Zm-10.98 32.31c.25 12.1 10.77 22.81 22.82 23.09q1.88.04 1.57-1.81-3.27-19.61-22.94-22.56-1.48-.22-1.45 1.28Zm57.89-1.13c-13.19.41-23.43 10.82-23.85 23.93q-.01.54.53.51c13.03-.65 23.56-10.6 23.9-23.86q.02-.6-.58-.58Z"/><rect x="83.75" y="16.75" width="31.76" height="8.26" rx=".6"/><circle cx="67.5" cy="38.74" r="8.5"/><rect x="-16" y="-4.51" transform="rotate(-45 127.756 -117.678)" width="32" height="9.02" rx=".69"/><circle cx="49.8" cy="58.61" r="9.44"/><circle cx="75.91" cy="67.92" r="12.77"/><rect x="152.25" y="64.5" width="8.26" height="31.76" rx=".6"/></svg>