<?xml version="1.0" encoding="UTF-8"?>
<svg id="Capa_2" data-name="Capa 2" xmlns="http://www.w3.org/2000/svg" viewBox="0 0 175.24 175.24">
  <defs>
    <style>
      .cls-1 {
        fill: #fff;
      }
    </style>
  </defs>
  <g id="monograma">
    <g>
      <circle class="cls-1" cx="67.13" cy="37.98" r="8.4"/>
      <path class="cls-1" d="M133.4,0H0V175.24H175.24V0h-41.84Zm33.14,8.7V42.66c-17.5-2.25-31.35-16.34-33.21-33.96h33.21Zm0,157.84H70.67v-16.03c.22,0,.43,.02,.65,.02,18.31,0,33.16-14.85,33.16-33.16,0-2.75-.34-5.43-.97-7.99-2.56-.63-5.23-.97-7.99-.97-9.9,0-18.77,4.34-24.85,11.21v-18.47c0-1.01-.07-2-.18-2.97-1.47-12.39-12.01-22-24.79-22-2.07,0-4.09,.26-6.02,.73-.48,1.93-.73,3.94-.73,6.02,0,13.14,10.14,23.9,23.03,24.89v11.8c-6.08-6.87-14.95-11.21-24.85-11.21-2.75,0-5.43,.34-7.99,.97-.63,2.56-.97,5.23-.97,7.99,0,18.31,14.85,33.16,33.16,33.16,.22,0,.43-.02,.65-.02v16.03H8.7V8.7H124.6c1.92,22.46,19.6,40.41,41.94,42.73v115.11Zm-95.49-24.97c0-13.49,10.97-24.46,24.46-24.46,.09,0,.17,0,.26,0,0,.09,0,.17,0,.26,0,13.49-10.97,24.46-24.46,24.46-.09,0-.17,0-.26,0,0-.09,0-.17,0-.26Zm-9.22-42.51c-7.31-.94-13.12-6.75-14.06-14.06,7.31,.94,13.12,6.75,14.06,14.06Zm-.25,42.51c0,.09,0,.17,0,.26-.09,0-.17,0-.26,0-13.49,0-24.46-10.97-24.46-24.46,0-.09,0-.17,0-.26,.09,0,.17,0,.26,0,13.49,0,24.46,10.97,24.46,24.46Z"/>
      <rect class="cls-1" x="152.08" y="63.79" width="8" height="31.66"/>
      <rect class="cls-1" x="83.37" y="16.03" width="31.66" height="8"/>
      <rect class="cls-1" x="104.37" y="50.78" width="31.66" height="8.7" transform="translate(-3.77 101.15) rotate(-45)"/>
      <path class="cls-1" d="M49.41,48.54c-5.15,0-9.32,4.17-9.32,9.32s4.17,9.32,9.32,9.32,9.32-4.17,9.32-9.32-4.17-9.32-9.32-9.32Z"/>
      <path class="cls-1" d="M75.52,54.54c-6.98,0-12.64,5.66-12.64,12.64s5.66,12.64,12.64,12.64,12.64-5.66,12.64-12.64-5.66-12.64-12.64-12.64Z"/>
    </g>
  </g>
</svg>