<svg xmlns="http://www.w3.org/2000/svg" fill="#fff" viewBox="0 0 436 68"><path d="M176.44 68h-8q-12.74-1.44-23.9-7.79a.96.95 28.3 0 1-.38-1.25l6.17-12.42a.57.57 0 0 1 .83-.22c6.24 4.23 17.96 9.34 25.51 7.11 7.49-2.21 3.63-8.12-1.44-9.88-7.4-2.58-15.41-4.26-21.91-8.36-8.04-5.07-8.15-17.08-3.75-24.38C159.09-4.95 182.4-.47 195.32 7.5q.31.19.14.51l-6.39 12.05q-.23.44-.65.16c-5.79-3.94-13.51-6.95-20.73-5.64-2.53.45-4.64 1.85-4.86 4.48-.96 11.13 37.6 4.01 34.62 31.47-1.29 11.9-10 15.53-21.01 17.47ZM436 33.31v2.25q-3.01 27.3-29.81 32.44h-7.5c-39.35-6.35-38.78-62.74.78-67.76 19.88-2.52 35.32 14.18 36.53 33.07Zm-33.35 20.92a20.14 17.44 89.8 0 0 17.37-20.2 20.14 17.44 89.8 0 0-17.51-20.08 20.14 17.44 89.8 0 0-17.37 20.2 20.14 17.44 89.8 0 0 17.51 20.08ZM52.3 29.17 38.73 56.29q-.23.46-.74.46H30.5q-.54 0-.78-.48l-13.6-27.46a.2.19-58.5 0 0-.37.09v38.19a.41.4 90 0 1-.4.41H.88q-.63 0-.63-.62V.91A.41.4 90 0 1 .65.5h16.03q.41 0 .6.37l16.68 33.62q.34.7.69 0L51.36.95q.23-.45.73-.45H68q.5 0 .5.5v66q0 .5-.5.5H53.75q-.99 0-.99-.99l-.03-37.23q0-.98-.43-.11ZM102.25 14.95V26.8a.45.45 0 0 0 .45.45h25.6a.45.45 0 0 1 .45.45v11.85a.45.45 0 0 1-.45.45h-25.6a.45.45 0 0 0-.45.45V53.3a.45.45 0 0 0 .45.45h30.6a.45.45 0 0 1 .45.45v12.85a.45.45 0 0 1-.45.45H87.2a.45.45 0 0 1-.45-.45V.95A.45.45 0 0 1 87.2.5h45.35a.45.45 0 0 1 .45.45v13.1a.45.45 0 0 1-.45.45H102.7a.45.45 0 0 0-.45.45ZM242.75 14.94v52.12a.44.44 0 0 1-.44.44h-14.62a.44.44 0 0 1-.44-.44V14.94a.44.44 0 0 0-.44-.44h-19.62a.44.44 0 0 1-.44-.44V.94a.44.44 0 0 1 .44-.44h55.62a.44.44 0 0 1 .44.44v13.12a.44.44 0 0 1-.44.44h-19.62a.44.44 0 0 0-.44.44Z"/><rect width="15.74" height="67" x="276.01" y=".5" rx=".51"/><path d="M327.44 53.75h31.48a.33.33 0 0 1 .33.33v13.09a.33.33 0 0 1-.33.33h-52.33a.33.33 0 0 1-.33-.33l-.01-11.38a.33.33 0 0 1 .07-.21l33.12-40.54a.33.33 0 0 0-.26-.54h-31.6a.33.33 0 0 1-.33-.33V.83a.33.33 0 0 1 .33-.33h51.08a.33.33 0 0 1 .33.33l.01 11.39a.33.33 0 0 1-.07.2l-31.76 40.8a.33.33 0 0 0 .27.53Z"/></svg>