<svg xmlns="http://www.w3.org/2000/svg" viewBox="0 0 1081 73"><path fill="#fff" d="M396.99 21.57c.03 4.39 1.15 10.63-2.4 13.99q-.45.43-.01.87c3.36 3.33 2.55 8.55 2.36 14.75q-.02.57.55.57h2.26q.75 0 .75.75v8.12q0 .63-.63.63h-12.33a1.54 1.54 0 0 1-1.54-1.54q0-7.65-.01-15.46 0-2.55-3.13-3.8-.61-.25-.61-.9v-7.09q0-.65.6-.9c4.86-2.03 3.16-13.79 3.15-18.31a1.74 1.74 0 0 1 1.74-1.75H400q.5 0 .5.5v8.25q0 .75-.75.75h-2.19q-.57 0-.57.57ZM706.07 21.05l-2.13.24q-.69.08-.69-.61v-8.69q0-.51.51-.51l11.95.06q1.8 0 1.79 1.8c0 4.92-1.77 15.7 3.53 18.6q.47.25.47.79v6.8q0 .53-.49.75c-6.88 3.02-1.37 14.92-3.74 20.47q-.22.5-.77.5h-12.75q-.5 0-.5-.5v-8.5q0-.5.5-.5h2.49q.5 0 .5-.5c.02-4.54-1.24-11.38 2.38-14.74q.45-.42.01-.85c-3.76-3.71-2.16-9.27-2.47-14.11q-.03-.56-.59-.5ZM625.18 20.84l4.53-8.39a.38.38 0 0 1 .34-.2h9.82a.38.38 0 0 1 .31.61l-6.81 8.97a.38.38 0 0 1-.34.14l-7.55-.58a.38.38 0 0 1-.3-.55ZM583.59 31.5q3.95-6.01 11.11-6.47a.61.6-86 0 1 .63.73l-2.11 9.97q-.12.56-.69.54-5.25-.15-9.72 2.52-.44.26-.55.77l-4.11 19.14q-.11.55-.67.55l-11.15-.01a.41.4 6.2 0 1-.4-.49l6.95-32.53q.1-.47.58-.47h10.01q.74 0 .58.73l-1.09 4.75q-.42 1.86.63.27ZM429.59 46.95c-.67 6.28 8.19 4.25 10.82 1.09q.31-.37.78-.22l8.46 2.75a.46.45-60.5 0 1 .2.73q-7.31 8.54-18.09 8.4c-17.21-.22-17.94-20.18-7.55-28.76q8.12-6.69 18.78-5.42c7.46.89 12.94 7.66 8.29 14.76-3.53 5.38-14.83 6.31-20.78 5.9a.86.86 0 0 0-.91.77Zm11.18-10.12-.92-2.83a.7.7 0 0 0-.89-.45l-1.08.36a7.52 2.17-18.1 0 0-6.47 4.39l.01.04a7.52 2.17-18.1 0 0 7.82-.27l1.08-.35a.7.7 0 0 0 .45-.89ZM521.44 73H509.9l9.69-46.74q.1-.51.62-.51h9.55a.46.46 0 0 1 .45.58l-1 3.65q-.48 1.73.7.38c7.27-8.32 20.76-6.7 22.05 5.67q1.42 13.68-9.26 21.17c-4.53 3.17-13.94 4.31-16.54-2.16a.39.39 0 0 0-.74.08q-1.44 9.12-3.98 17.88Zm9.537-23.959a7.22 5.4 113.1 0 0 7.8-4.522 7.22 5.4 113.1 0 0-2.134-8.76 7.22 5.4 113.1 0 0-7.8 4.522 7.22 5.4 113.1 0 0 2.134 8.76ZM618.86 47.26c-.47 1.5 1.02 3.18 2.54 3.56q4.77 1.2 8.13-2.72.36-.43.9-.25l8.36 2.68q.63.21.2.71-7.9 9.37-19.25 8.56c-24.65-1.78-11.97-40.69 14.99-33.76 4.35 1.12 7.33 4.62 7.26 9.17-.16 9.91-14.2 11.51-21.55 10.97q-1.22-.09-1.58 1.08Zm2.21-8.29c2.66 0 5.82.03 8.32-1.1q.55-.25.61-.86c.63-5.95-7.7-1.9-9.32 1.33q-.32.63.39.63ZM671.44 50.41a.95.94-30.5 0 0 .21-.8c-.49-2.3-8.48-4.51-10.78-6.01-4.03-2.6-3.8-7.76-1.24-11.23 5.89-8 18.46-9.95 26.07-2.64a.58.57-48.1 0 1 .04.78l-5.41 6.55q-.31.39-.72.09c-2.12-1.56-7.3-5.14-9.69-2.47a1.43 1.43 0 0 0 .57 2.29c5.3 1.95 13.9 3.3 13.28 10.92q-.64 8.01-8.52 10.64-11.33 3.78-20.73-3.32a1.15 1.15 0 0 1-.22-1.62l4.79-6.29a.61.61 0 0 1 .88-.09c2.03 1.75 9.11 5.95 11.47 3.2ZM480.85 50.33l-6.71 8.8a.31.31 0 0 1-.24.12l-11.64-.01a.31.31 0 0 1-.23-.51l14.06-16.12a.31.31 0 0 0 .05-.33l-6.78-16.1a.31.31 0 0 1 .29-.43h11.71a.31.31 0 0 1 .3.22l2.52 8.62a.31.31 0 0 0 .54.1l6.57-8.82a.31.31 0 0 1 .25-.12h11.44a.31.31 0 0 1 .23.51l-13.73 16.09a.31.31 0 0 0-.05.33l7.19 16.13a.31.31 0 0 1-.29.44h-11.84a.31.31 0 0 1-.3-.21l-2.8-8.62a.31.31 0 0 0-.54-.09Z"/><rect fill="#fff" x="37.25" y="32.5" width="285" height="7.24" rx=".26"/><rect fill="#fff" x="755.76" y="32.5" width="285.22" height="7.24" rx=".26"/></svg>