<?xml version="1.0" encoding="UTF-8"?>
<svg id="Capa_2" data-name="Capa 2" xmlns="http://www.w3.org/2000/svg" viewBox="0 0 346 257.25">
  <defs>
    <style>
      .cls-1 {
        fill: #fff;
      }
    </style>
  </defs>
  <g id="Capa_1-2" data-name="Capa 1">
    <g>
      <g>
        <circle class="cls-1" cx="155.98" cy="30.18" r="6.67"/>
        <path class="cls-1" d="M208.64,0H102.65V139.23H241.88V0h-33.24Zm26.33,6.91v26.98c-13.91-1.79-24.91-12.98-26.39-26.98h26.39Zm0,125.41h-76.17v-12.73c.17,0,.34,.02,.52,.02,14.55,0,26.35-11.8,26.35-26.35,0-2.19-.27-4.31-.77-6.35-2.03-.5-4.16-.77-6.35-.77-7.86,0-14.91,3.45-19.74,8.91v-14.68c0-.8-.05-1.59-.14-2.36-1.17-9.85-9.54-17.48-19.7-17.48-1.65,0-3.25,.2-4.78,.58-.38,1.53-.58,3.13-.58,4.78,0,10.44,8.06,18.99,18.29,19.78v9.38c-4.83-5.46-11.88-8.91-19.74-8.91-2.19,0-4.31,.27-6.35,.77-.5,2.03-.77,4.16-.77,6.35,0,14.55,11.8,26.35,26.35,26.35,.17,0,.34-.01,.51-.02v12.73h-42.32V6.91h92.08c1.53,17.84,15.58,32.11,33.32,33.95v91.45Zm-75.87-19.84c0-10.72,8.72-19.43,19.44-19.43,.07,0,.14,0,.21,0,0,.07,0,.14,0,.21,0,10.72-8.72,19.43-19.44,19.43-.07,0-.14,0-.21,0,0-.07,0-.14,0-.21Zm-7.32-33.77c-5.81-.75-10.43-5.36-11.17-11.17,5.81,.75,10.43,5.36,11.17,11.17Zm-.2,33.77c0,.07,0,.14,0,.21-.07,0-.14,0-.21,0-10.72,0-19.43-8.72-19.43-19.43,0-.07,0-.14,0-.21,.07,0,.14,0,.21,0,10.72,0,19.43,8.72,19.43,19.43Z"/>
        <rect class="cls-1" x="223.48" y="50.68" width="6.36" height="25.15"/>
        <rect class="cls-1" x="168.89" y="12.73" width="25.15" height="6.36"/>
        <rect class="cls-1" x="185.57" y="40.34" width="25.15" height="6.91" transform="translate(27.07 152.95) rotate(-45)"/>
        <path class="cls-1" d="M141.91,38.56c-4.09,0-7.4,3.31-7.4,7.4s3.31,7.4,7.4,7.4,7.4-3.31,7.4-7.4-3.31-7.4-7.4-7.4Z"/>
        <path class="cls-1" d="M162.65,43.33c-5.55,0-10.04,4.5-10.04,10.04s4.5,10.04,10.04,10.04,10.04-4.5,10.04-10.04-4.5-10.04-10.04-10.04Z"/>
      </g>
      <rect class="cls-1" x="241.89" y="244.24" width="91.28" height="2.38"/>
      <rect class="cls-1" x="11.88" y="244.24" width="91.28" height="2.38"/>
      <g>
        <path class="cls-1" d="M127.06,240.66v3.18c0,.39-.09,.7-.26,.93-.17,.23-.37,.45-.59,.64,.21,.18,.4,.39,.58,.64,.18,.25,.27,.56,.27,.93v3.41h1.14v3.1h-4.17c-.08,0-.18-.04-.3-.11-.12-.08-.18-.24-.18-.51v-4.55c0-.44-.13-.8-.4-1.08s-.55-.45-.84-.51v-2.69c.19,0,.39-.08,.58-.23,.19-.15,.35-.35,.48-.59,.12-.24,.19-.49,.19-.73v-4.32c0-.25,.06-.41,.18-.5,.12-.08,.22-.12,.3-.12h4.17v3.1h-1.14Z"/>
        <path class="cls-1" d="M138.25,253.05c-.94,0-1.76-.19-2.46-.56s-1.25-.9-1.63-1.58-.58-1.48-.58-2.39,.19-1.78,.56-2.57c.37-.79,.88-1.49,1.54-2.08,.65-.6,1.41-1.06,2.28-1.4,.87-.34,1.8-.51,2.79-.51,.88,0,1.63,.12,2.25,.37,.62,.24,1.1,.6,1.44,1.07s.51,1.03,.51,1.68c0,1.19-.56,2.1-1.69,2.72-1.13,.62-2.79,.93-4.98,.93-.44,0-.91-.01-1.39-.03-.49-.02-.97-.06-1.46-.11l.5-2.33c.36,.04,.73,.07,1.12,.09,.38,.02,.79,.03,1.22,.03,.7,0,1.26-.03,1.68-.08,.42-.05,.72-.14,.9-.27,.18-.13,.27-.3,.27-.51,0-.16-.05-.29-.14-.4-.09-.11-.21-.2-.37-.26-.16-.07-.34-.1-.55-.1-.34,0-.68,.1-.99,.31-.32,.21-.59,.49-.83,.85-.23,.36-.42,.78-.56,1.26-.14,.48-.21,.99-.21,1.54,0,.36,.05,.65,.15,.88s.27,.39,.5,.5c.23,.11,.52,.16,.88,.16,.44,0,.83-.1,1.18-.29,.34-.19,.63-.47,.85-.83l3.08,.99c-.4,.58-.91,1.09-1.54,1.53-.63,.44-1.31,.79-2.06,1.03-.74,.25-1.49,.37-2.25,.37Z"/>
        <path class="cls-1" d="M152.42,247.48l-2.25-5.36h3.97l.78,2.63,.1,.43,.27-.43,2-2.63h3.93l-4.59,5.36,2.38,5.36h-3.99l-.91-2.63-.08-.41-.27,.41-2.03,2.63h-3.99l4.67-5.36Z"/>
        <path class="cls-1" d="M166.33,242.12h3.41l-.35,1.64c.48-.58,1.03-1.03,1.63-1.34,.61-.31,1.29-.47,2.07-.47s1.44,.19,1.99,.56c.56,.37,.99,.88,1.29,1.52,.3,.64,.45,1.38,.45,2.22,0,.91-.16,1.77-.47,2.59-.32,.82-.74,1.54-1.28,2.17-.54,.63-1.15,1.12-1.85,1.48-.7,.36-1.41,.54-2.16,.54s-1.34-.15-1.82-.46-.8-.75-.95-1.33l-1.28,5.98h-3.93l3.24-15.12Zm4.07,7.62c.29,0,.57-.08,.85-.23s.52-.36,.74-.63c.22-.26,.4-.57,.53-.91,.13-.34,.2-.7,.2-1.07,0-.33-.06-.62-.18-.86-.12-.25-.29-.44-.51-.58-.22-.14-.49-.21-.81-.21-.17,0-.32,.02-.47,.07-.15,.05-.3,.11-.45,.19s-.3,.19-.45,.32-.31,.28-.47,.46l-.41,1.85c.05,.3,.15,.57,.28,.81,.13,.24,.3,.43,.51,.57,.21,.14,.43,.21,.66,.21Z"/>
        <path class="cls-1" d="M183.41,242.12h3.59l-.45,2.04c.52-.72,1.1-1.27,1.73-1.66s1.25-.58,1.86-.58h.31c.05,0,.1,0,.14,.02l-.74,3.53c-.7,0-1.36,.08-1.98,.23-.62,.16-1.12,.42-1.49,.78l-1.36,6.36h-3.93l2.31-10.72Z"/>
        <path class="cls-1" d="M198.8,253.05c-.94,0-1.76-.19-2.46-.56-.7-.37-1.25-.9-1.63-1.58s-.58-1.48-.58-2.39,.19-1.78,.56-2.57c.37-.79,.88-1.49,1.54-2.08,.65-.6,1.41-1.06,2.28-1.4,.87-.34,1.8-.51,2.79-.51,.88,0,1.63,.12,2.25,.37,.62,.24,1.1,.6,1.44,1.07s.51,1.03,.51,1.68c0,1.19-.56,2.1-1.69,2.72-1.13,.62-2.79,.93-4.98,.93-.44,0-.91-.01-1.39-.03-.49-.02-.97-.06-1.46-.11l.5-2.33c.36,.04,.73,.07,1.12,.09,.38,.02,.79,.03,1.22,.03,.7,0,1.26-.03,1.68-.08,.42-.05,.72-.14,.9-.27,.18-.13,.27-.3,.27-.51,0-.16-.05-.29-.14-.4-.09-.11-.21-.2-.37-.26-.16-.07-.34-.1-.55-.1-.34,0-.68,.1-.99,.31-.32,.21-.59,.49-.83,.85-.23,.36-.42,.78-.56,1.26-.14,.48-.21,.99-.21,1.54,0,.36,.05,.65,.15,.88s.27,.39,.5,.5c.23,.11,.52,.16,.88,.16,.44,0,.83-.1,1.18-.29,.34-.19,.63-.47,.85-.83l3.08,.99c-.4,.58-.91,1.09-1.54,1.53-.63,.44-1.31,.79-2.06,1.03-.74,.25-1.49,.37-2.25,.37Zm3.86-12.1l-2.64-.25,1.59-2.93h3.47l-2.42,3.18Z"/>
        <path class="cls-1" d="M213.75,253.05c-.9,0-1.75-.15-2.56-.46-.81-.31-1.46-.76-1.94-1.35l1.82-2.35c.55,.45,1.1,.81,1.64,1.05,.54,.25,1.06,.37,1.54,.37,.19,0,.34-.02,.44-.07,.1-.05,.18-.11,.23-.2s.07-.18,.07-.29c0-.15-.08-.29-.25-.44s-.47-.28-.91-.42c-.79-.26-1.42-.51-1.9-.76s-.84-.53-1.06-.83c-.23-.3-.34-.66-.34-1.06,0-.8,.23-1.52,.69-2.16,.46-.64,1.08-1.16,1.86-1.54,.78-.38,1.63-.58,2.57-.58,.77,0,1.47,.1,2.11,.31,.63,.21,1.25,.63,1.84,1.26l-1.96,2.35c-.56-.44-1.04-.75-1.43-.94-.39-.19-.76-.28-1.11-.28-.15,0-.29,.03-.4,.08-.12,.05-.21,.12-.27,.22-.06,.09-.09,.2-.09,.33,0,.17,.09,.31,.28,.42,.19,.11,.52,.24,1,.38,.8,.23,1.44,.48,1.92,.74s.83,.56,1.05,.88,.33,.71,.33,1.16c0,.82-.22,1.55-.65,2.18-.43,.63-1.04,1.12-1.81,1.47s-1.67,.53-2.71,.53Z"/>
        <path class="cls-1" d="M225.07,240.66v-3.1h4.17c.08,0,.18,.04,.3,.12,.12,.08,.18,.25,.18,.5v4.32c0,.25,.06,.49,.19,.73,.12,.24,.28,.44,.47,.59,.19,.15,.39,.23,.58,.23v2.69c-.29,.06-.57,.22-.84,.51s-.4,.64-.4,1.08v4.55c0,.26-.06,.43-.18,.51-.12,.08-.22,.11-.3,.11h-4.17v-3.1h1.14v-3.41c0-.37,.09-.68,.27-.93,.18-.25,.37-.46,.58-.64-.22-.19-.42-.41-.59-.64s-.26-.54-.26-.93v-3.18h-1.14Z"/>
      </g>
      <g>
        <path class="cls-1" d="M41.82,224.96v-31.67l-11.5,23h-6.65l-11.43-23v31.67H0v-53.02H13.29l13.74,27.71,13.74-27.71h13.29v53.02h-12.25Z"/>
        <path class="cls-1" d="M105.97,214.21v10.75h-37.27v-53.02h36.59v10.75h-24.35v10.31h20.91v9.93h-20.91v11.28h25.02Z"/>
        <path class="cls-1" d="M149.74,187.47c-.15-.15-.69-.51-1.61-1.08-.92-.57-2.04-1.16-3.36-1.76-1.32-.6-2.78-1.11-4.37-1.53-1.59-.42-3.19-.64-4.78-.64-2.09,0-3.71,.37-4.85,1.11-1.15,.74-1.72,1.83-1.72,3.26,0,1.14,.44,2.06,1.31,2.78,.87,.72,2.13,1.33,3.77,1.85,1.64,.52,3.66,1.1,6.05,1.74,3.39,.94,6.32,2.04,8.81,3.29,2.49,1.26,4.39,2.88,5.71,4.85,1.32,1.97,1.98,4.59,1.98,7.85,0,2.91-.54,5.42-1.61,7.52-1.07,2.1-2.57,3.78-4.48,5.03-1.92,1.26-4.06,2.17-6.42,2.74-2.37,.57-4.82,.85-7.36,.85s-5.24-.27-7.95-.82c-2.71-.55-5.32-1.32-7.8-2.31-2.49-1-4.78-2.14-6.87-3.44l5.3-10.75c.25,.3,.92,.77,2.02,1.42,1.09,.65,2.45,1.33,4.07,2.05,1.62,.72,3.42,1.37,5.41,1.94,1.99,.57,3.98,.86,5.97,.86,2.24,0,3.89-.35,4.97-1.05,1.07-.7,1.61-1.66,1.61-2.87,0-1.28-.56-2.31-1.68-3.08-1.12-.77-2.64-1.46-4.56-2.08-1.92-.62-4.12-1.27-6.61-1.96-3.24-1.04-5.91-2.16-8.03-3.38-2.12-1.21-3.69-2.71-4.7-4.49-1.02-1.78-1.53-3.98-1.53-6.6,0-3.76,.88-6.91,2.65-9.46,1.77-2.55,4.14-4.47,7.13-5.78,2.99-1.31,6.25-1.97,9.78-1.97,2.54,0,4.95,.3,7.24,.9,2.29,.6,4.46,1.34,6.5,2.24,2.04,.9,3.81,1.82,5.3,2.76l-5.3,10.01Z"/>
        <path class="cls-1" d="M208.74,182.69h-16.13v42.27h-12.25v-42.27h-16.21v-10.75h44.59v10.75Z"/>
        <path class="cls-1" d="M219.19,224.96v-53.02h12.25v53.02h-12.25Z"/>
        <path class="cls-1" d="M243.09,215.78l27.04-33.08h-26.06v-10.75h40.78v9.19l-25.77,33.08h26.06v10.75h-42.05v-9.19Z"/>
        <path class="cls-1" d="M319.49,225.34c-3.88,0-7.43-.76-10.64-2.28-3.21-1.52-5.99-3.56-8.33-6.12-2.34-2.56-4.13-5.45-5.38-8.66-1.24-3.21-1.87-6.54-1.87-9.97s.66-6.9,1.98-10.08c1.32-3.19,3.16-6.04,5.53-8.55,2.36-2.51,5.16-4.49,8.4-5.94,3.24-1.44,6.77-2.17,10.61-2.17s7.51,.76,10.72,2.28c3.21,1.52,5.97,3.57,8.29,6.16,2.32,2.59,4.09,5.49,5.34,8.7,1.24,3.21,1.87,6.49,1.87,9.82,0,3.54-.65,6.9-1.94,10.08-1.29,3.19-3.14,6.04-5.53,8.55-2.39,2.51-5.19,4.51-8.4,5.97-3.21,1.47-6.76,2.2-10.64,2.2Zm-13.82-26.89c0,2.04,.31,4.02,.93,5.94,.62,1.92,1.52,3.62,2.69,5.12,1.17,1.49,2.61,2.69,4.33,3.58s3.75,1.34,6.09,1.34,4.31-.46,6.05-1.38c1.74-.92,3.19-2.17,4.33-3.73,1.15-1.57,2-3.3,2.58-5.19,.57-1.89,.86-3.83,.86-5.83s-.31-4.01-.93-5.9c-.62-1.89-1.52-3.6-2.69-5.12-1.17-1.52-2.63-2.7-4.37-3.55-1.74-.85-3.71-1.27-5.9-1.27-2.34,0-4.38,.45-6.12,1.34-1.74,.9-3.19,2.12-4.33,3.66-1.15,1.54-2.02,3.25-2.61,5.12-.6,1.87-.9,3.82-.9,5.86Z"/>
      </g>
    </g>
  </g>
</svg>