<?xml version="1.0" encoding="UTF-8"?>
<svg id="Capa_2" data-name="Capa 2" xmlns="http://www.w3.org/2000/svg" viewBox="0 0 435.5 67.68">
  <defs>
    <style>
      .cls-1 {
        fill: #0585f0;
      }
    </style>
  </defs>
  <g id="txt_outlines" data-name="txt outlines">
    <g>
      <path class="cls-1" d="M52.64,67.21V27.35l-14.48,28.95h-8.37L15.42,27.35v39.86H0V.47H16.73l17.3,34.87L51.32,.47h16.73V67.21h-15.42Z"/>
      <path class="cls-1" d="M133.38,53.67v13.54h-46.91V.47h46.06V14.01h-30.64v12.97h26.32v12.5h-26.32v14.19h31.49Z"/>
      <path class="cls-1" d="M188.47,20.02c-.19-.19-.86-.64-2.02-1.36-1.16-.72-2.57-1.46-4.23-2.21-1.66-.75-3.49-1.39-5.5-1.93-2.01-.53-4.01-.8-6.02-.8-2.63,0-4.67,.47-6.11,1.4-1.44,.93-2.16,2.3-2.16,4.1,0,1.43,.55,2.59,1.64,3.5,1.1,.9,2.68,1.68,4.75,2.33,2.07,.65,4.61,1.38,7.61,2.19,4.26,1.18,7.96,2.56,11.09,4.15,3.13,1.58,5.53,3.62,7.19,6.1,1.66,2.48,2.49,5.78,2.49,9.88,0,3.67-.67,6.82-2.02,9.46s-3.23,4.75-5.64,6.34c-2.41,1.58-5.11,2.74-8.08,3.45-2.98,.71-6.06,1.07-9.26,1.07s-6.6-.34-10.01-1.03c-3.42-.69-6.69-1.66-9.82-2.91-3.13-1.25-6.02-2.69-8.65-4.32l6.67-13.54c.31,.38,1.16,.97,2.54,1.79,1.38,.81,3.09,1.68,5.12,2.58,2.04,.91,4.31,1.72,6.81,2.44,2.51,.72,5.01,1.08,7.52,1.08,2.82,0,4.9-.44,6.25-1.33,1.35-.88,2.02-2.09,2.02-3.62,0-1.62-.7-2.91-2.11-3.87-1.41-.96-3.32-1.84-5.73-2.61-2.41-.78-5.19-1.6-8.32-2.47-4.07-1.31-7.44-2.72-10.1-4.25-2.66-1.52-4.64-3.41-5.92-5.65-1.29-2.24-1.93-5.01-1.93-8.31,0-4.73,1.11-8.7,3.34-11.9,2.22-3.21,5.22-5.63,8.98-7.28s7.86-2.47,12.31-2.47c3.2,0,6.23,.38,9.12,1.13,2.88,.75,5.61,1.69,8.18,2.82,2.57,1.13,4.79,2.29,6.67,3.48l-6.67,12.6Z"/>
      <path class="cls-1" d="M262.73,14.01h-20.3v53.2h-15.42V14.01h-20.4V.47h56.12V14.01Z"/>
      <path class="cls-1" d="M275.88,67.21V.47h15.42V67.21h-15.42Z"/>
      <path class="cls-1" d="M305.96,55.65l34.03-41.64h-32.81V.47h51.32V12.03l-32.43,41.64h32.81v13.54h-52.92v-11.56Z"/>
      <path class="cls-1" d="M402.13,67.68c-4.89,0-9.35-.95-13.4-2.87-4.04-1.91-7.54-4.48-10.48-7.71-2.95-3.23-5.2-6.86-6.77-10.9s-2.35-8.23-2.35-12.55,.83-8.68,2.49-12.69c1.66-4.01,3.98-7.6,6.96-10.76,2.98-3.16,6.5-5.66,10.57-7.47,4.07-1.82,8.52-2.73,13.35-2.73s9.45,.96,13.49,2.87c4.04,1.91,7.52,4.5,10.43,7.75,2.91,3.26,5.15,6.91,6.72,10.95,1.57,4.04,2.35,8.16,2.35,12.36,0,4.45-.82,8.68-2.44,12.69-1.63,4.01-3.95,7.6-6.96,10.76-3.01,3.17-6.53,5.67-10.58,7.52-4.04,1.85-8.51,2.77-13.39,2.77Zm-17.39-33.84c0,2.57,.39,5.06,1.18,7.47,.78,2.41,1.91,4.56,3.38,6.44,1.47,1.88,3.29,3.38,5.45,4.51s4.71,1.69,7.66,1.69,5.42-.58,7.61-1.74c2.19-1.16,4.01-2.73,5.45-4.7,1.44-1.97,2.52-4.15,3.24-6.53,.72-2.38,1.08-4.83,1.08-7.33s-.39-5.04-1.17-7.43c-.78-2.38-1.91-4.53-3.38-6.44-1.47-1.91-3.31-3.4-5.5-4.46-2.19-1.07-4.67-1.6-7.43-1.6-2.95,0-5.51,.56-7.71,1.69-2.19,1.13-4.01,2.66-5.45,4.61-1.44,1.94-2.54,4.09-3.29,6.44-.75,2.35-1.13,4.81-1.13,7.38Z"/>
    </g>
  </g>
</svg>